<svg width="30" height="30" viewBox="0 0 30 30" fill="none" xmlns="http://www.w3.org/2000/svg">
<path fill-rule="evenodd" clip-rule="evenodd" d="M15.3334 0.745087C11.3034 0.745087 8.03924 4.0092 8.03924 8.0392C8.03924 12.0692 11.3034 15.3333 15.3334 15.3333C19.3634 15.3333 22.6275 12.0692 22.6275 8.0392C22.6275 4.0092 19.3634 0.745087 15.3334 0.745087ZM18.9804 8.0392C18.9804 6.03332 17.3392 4.39215 15.3334 4.39215C13.3275 4.39215 11.6863 6.03332 11.6863 8.0392C11.6863 10.0451 13.3275 11.6863 15.3334 11.6863C17.3392 11.6863 18.9804 10.0451 18.9804 8.0392ZM26.2745 26.2745C25.9098 24.9798 20.2569 22.6274 15.3334 22.6274C10.4281 22.6274 4.81159 24.9616 4.39218 26.2745H26.2745ZM0.745117 26.2745C0.745117 21.4239 10.4645 18.9804 15.3334 18.9804C20.2022 18.9804 29.9216 21.4239 29.9216 26.2745V29.9216H0.745117V26.2745Z" fill="#4F4F4F"/>
</svg>
